<svg xmlns="http://www.w3.org/2000/svg" width="16" height="16" viewBox="0 0 16 16">
  <g id="Group_55011" data-name="Group 55011" transform="translate(-392 12909.955)">
    <rect id="Rectangle_2751" data-name="Rectangle 2751" width="16" height="16" transform="translate(392 -12909.955)" fill="none"/>
    <path id="Path_20607" data-name="Path 20607" d="M237.164,750.861a1.321,1.321,0,0,1-.625.507,3.77,3.77,0,0,1-1.168.124h-2.626v-4.176a4.758,4.758,0,0,1,.679.209,2.936,2.936,0,0,1,.838.567,5.485,5.485,0,0,1,.981,2.136h.437l-.289-3.911h-.307a1.088,1.088,0,0,1-.137.567.35.35,0,0,1-.2.137.355.355,0,0,1-.069.007,2.319,2.319,0,0,1-.622-.173c-.2-.075-.388-.14-.558-.2a6.68,6.68,0,0,0-.752-.206v-3.4h2.626a3.759,3.759,0,0,1,1.168.124,1.321,1.321,0,0,1,.625.507,3.861,3.861,0,0,1,.386,1.217h.513l-.124-2.677H228.5v.5h.436c1.069,0,1.024.38,1.025.668v3.025a5.711,5.711,0,0,0-4.99,5.773c0,2.634,1.7,5.874,6.811,5.874a8.649,8.649,0,0,0,3.093-.561l.143-.057c.159-.065.319-.138.48-.219v-4.3H232.64v.462a1.681,1.681,0,0,1,1.347.535c.024.226.022.542.022,1.1l-.058,1.323a1.916,1.916,0,0,1-1.084.733c-.019.007-.04.013-.059.019a2.881,2.881,0,0,1-.8.118c-2.78.215-4.351-1.561-4.351-5.007,0-1.638.425-3.818,2.3-4.659v3.6c0,.288.044.668-1.025.668H228.5v.5h9.434l.124-2.677h-.513A3.861,3.861,0,0,1,237.164,750.861Z" transform="translate(168.481 -13652.101)" fill="#c3021c"/>
  </g>
</svg>
