<svg xmlns="http://www.w3.org/2000/svg" width="21.167" height="18.002" viewBox="0 0 21.167 18.002">
  <g id="Group_18" data-name="Group 18" transform="translate(0 0)">
    <g id="Group_16545" data-name="Group 16545" transform="translate(0 10.881)">
      <path id="Path_12100" data-name="Path 12100" d="M1402.8,976.177h-20.109a.529.529,0,0,1-.529-.529v-6.064a.529.529,0,0,1,1.058,0v5.535h19.051v-5.535a.529.529,0,0,1,1.058,0v6.064A.528.528,0,0,1,1402.8,976.177Z" transform="translate(-1382.164 -969.056)"/>
    </g>
    <g id="Group_16548" data-name="Group 16548" transform="translate(7.33 0)">
      <g id="Group_16546" data-name="Group 16546">
        <path id="Path_12101" data-name="Path 12101" d="M1404.131,949.1a.527.527,0,0,1-.374-.155l-2.351-2.351-2.351,2.351a.529.529,0,0,1-.748-.748l2.724-2.725a.545.545,0,0,1,.748,0l2.725,2.725a.529.529,0,0,1-.374.9Z" transform="translate(-1398.153 -945.322)"/>
      </g>
      <g id="Group_16547" data-name="Group 16547" transform="translate(2.724 0.486)">
        <path id="Path_12102" data-name="Path 12102" d="M1404.624,958.807a.529.529,0,0,1-.529-.529V946.911a.529.529,0,0,1,1.058,0v11.367A.529.529,0,0,1,1404.624,958.807Z" transform="translate(-1404.095 -946.382)"/>
      </g>
    </g>
  </g>
</svg>