<svg id="Layer_1" data-name="Layer 1" xmlns="http://www.w3.org/2000/svg" viewBox="0 0 480.5 480.5"><defs><style>.cls-1{fill:#fff;stroke:#fff;}.cls-1,.cls-2{stroke-miterlimit:2.61;stroke-width:0.5px;}.cls-2{stroke:#1d1d1b;}.cls-2,.cls-3{fill-rule:evenodd;}</style></defs><rect class="cls-1" x="0.25" y="0.25" width="480" height="480"/><path class="cls-2" d="M337.58,134.26a143.72,143.72,0,0,1-168,230.93l-11.33,3.57-50,15.74,11.34-51.15,2.57-11.6A143.71,143.71,0,0,1,337.58,134.26ZM363.4,247.47c0-.27,0-.55.05-.82s0-.75.05-1.13c0-.65.05-1.31.07-2,0-.38,0-.76,0-1.14,0-.64,0-1.29,0-1.93,0-.09,0-.18,0-.26,0-.38,0-.75,0-1.12,0-.54,0-1.09,0-1.63s0-1.17-.05-1.75c0-.39,0-.79,0-1.19,0-.71-.07-1.43-.12-2.14,0-.24,0-.49,0-.73q-.09-1.28-.21-2.55l0-.25a123.4,123.4,0,1,0-221.6,85.39l-.11.53-3,13.43-1,4.34L131.6,359l25.85-8.13,8.63-2.71,9.34-2.93a123.41,123.41,0,0,0,188-97.77Z" transform="translate(-0.25 -0.25)"/><path class="cls-3" d="M180.53,181.06c-6.49,7.51-8.77,17-7.89,27.45C168.8,250.24,231.81,315.71,273,311.73c13,1.14,24.68-3.05,32.87-14.76,3.71-7.62,2.86-12.12,1.7-14.42-3.38-6.73-25.67-14.09-32.95-17.05-4.31-1.76-14,4.67-16.67,8.22s-7.3,1.08-7.3,1.08c-10.46-5.24-38.2-35.81-42.41-46.76,0,0-2-4.85,1.77-7.16s11.13-11.35,9.8-15.82-12-32.79-12-32.79-3.62-6.11-16.33-1.38A40.81,40.81,0,0,0,180.53,181.06Z" transform="translate(-0.25 -0.25)"/></svg>